<svg width="30" height="32" viewBox="0 0 30 32" fill="none" xmlns="http://www.w3.org/2000/svg">
<path fill-rule="evenodd" clip-rule="evenodd" d="M19.1534 8.77291C27.8325 -0.663497 36.3023 13.2946 23.336 15.5554C36.3023 17.9145 27.7279 31.7742 19.1534 22.3377C23.5452 34.1332 6.50086 34.035 10.8927 22.3377C2.21363 31.7742 -6.25626 17.9145 6.71 15.5554C-6.36083 13.2946 2.21363 -0.565203 10.8927 8.77291C6.3963 -2.9243 23.5452 -2.9243 19.1534 8.77291ZM14.9707 13.786C16.0165 13.786 16.9575 14.5724 16.9575 15.5554C16.9575 16.5383 16.0165 17.423 14.9707 17.423C13.9251 17.423 13.0885 16.5383 13.0885 15.5554C13.0885 14.5724 13.9251 13.786 14.9707 13.786Z" fill="#134013"/>
</svg>
